<svg width="222" height="64" viewBox="0 0 222 64" fill="none" xmlns="http://www.w3.org/2000/svg">
<path d="M220.766 56.6191C220.766 60.0297 217.94 62.7924 214.444 62.7924H7.56242C4.06847 62.7924 1.23242 60.0297 1.23242 56.6191V7.3889C1.23242 3.97987 4.06847 1.20752 7.56242 1.20752H214.442C217.94 1.20752 220.764 3.97987 220.764 7.3889L220.766 56.6191Z" fill="black"/>
<path d="M213.778 1.282C217.585 1.282 220.682 4.296 220.682 8V56C220.682 59.704 217.585 62.718 213.778 62.718H8.22222C4.41533 62.718 1.31761 59.704 1.31761 56V8C1.31761 4.296 4.41533 1.282 8.22222 1.282H213.778ZM213.778 3.8147e-06H8.22222C3.70206 3.8147e-06 0 3.602 0 8V56C0 60.398 3.70206 64 8.22222 64H213.778C218.298 64 222 60.398 222 56V8C222 3.602 218.298 3.8147e-06 213.778 3.8147e-06Z" fill="#A6A6A6"/>
<path d="M49.5434 31.6545C49.4957 26.4977 53.8831 23.9889 54.0837 23.8721C51.599 20.3473 47.7477 19.8657 46.3943 19.8273C43.1597 19.4961 40.0221 21.7105 38.3743 21.7105C36.6937 21.7105 34.1563 19.8593 31.4216 19.9137C27.9025 19.9665 24.6103 21.9489 22.8047 25.0273C19.0784 31.3041 21.8575 40.5281 25.4276 45.6017C27.2135 48.0865 29.3003 50.8609 32.0317 50.7633C34.7039 50.6561 35.7021 49.1057 38.9269 49.1057C42.122 49.1057 43.0594 50.7633 45.845 50.7009C48.713 50.6561 50.5186 48.2049 52.2419 45.6977C54.3057 42.8497 55.1345 40.0449 55.1674 39.9009C55.1 39.8785 49.5977 37.8353 49.5434 31.6545Z" fill="white"/>
<path d="M44.2812 16.4897C45.7184 14.7409 46.7018 12.3617 46.4288 9.94727C44.3486 10.0369 41.7471 11.3473 40.249 13.0577C38.9236 14.5649 37.7396 17.0353 38.0454 19.3585C40.3822 19.5281 42.7814 18.2113 44.2812 16.4897Z" fill="white"/>
<path d="M80.6595 16.0144C80.6595 17.8976 80.079 19.3152 78.9197 20.2672C77.8459 21.1456 76.3198 21.5856 74.3432 21.5856C73.3631 21.5856 72.5244 21.544 71.8223 21.4608V11.1712C72.7382 11.0272 73.7249 10.9536 74.7905 10.9536C76.6734 10.9536 78.0925 11.352 79.0496 12.1488C80.1218 13.0496 80.6595 14.3376 80.6595 16.0144ZM78.8424 16.0608C78.8424 14.84 78.5102 13.904 77.8459 13.2512C77.1815 12.6 76.2113 12.2736 74.9336 12.2736C74.3909 12.2736 73.9288 12.3088 73.5456 12.3824V20.2048C73.7578 20.2368 74.1459 20.2512 74.7099 20.2512C76.0288 20.2512 77.0467 19.8944 77.7637 19.1808C78.4806 18.4672 78.8424 17.4272 78.8424 16.0608Z" fill="white"/>
<path d="M90.2936 17.6593C90.2936 18.8193 89.9532 19.7697 89.2724 20.5153C88.5587 21.2817 87.6131 21.6641 86.4324 21.6641C85.2945 21.6641 84.3884 21.2977 83.7125 20.5617C83.0383 19.8273 82.7012 18.9009 82.7012 17.7841C82.7012 16.6161 83.0481 15.6577 83.7454 14.9137C84.4426 14.1697 85.38 13.7969 86.5607 13.7969C87.6986 13.7969 88.613 14.1633 89.3053 14.8977C89.963 15.6113 90.2936 16.5329 90.2936 17.6593ZM88.5061 17.7137C88.5061 17.0177 88.3515 16.4209 88.044 15.9233C87.6822 15.3217 87.1675 15.0209 86.4982 15.0209C85.8059 15.0209 85.2797 15.3217 84.9179 15.9233C84.6087 16.4209 84.4558 17.0273 84.4558 17.7441C84.4558 18.4401 84.6104 19.0369 84.9179 19.5345C85.2912 20.1361 85.8108 20.4369 86.4818 20.4369C87.1395 20.4369 87.6559 20.1313 88.0275 19.5185C88.3466 19.0113 88.5061 18.4097 88.5061 17.7137Z" fill="white"/>
<path d="M103.214 13.9507L100.788 21.4931H99.2098L98.205 18.2179C97.9501 17.4003 97.7429 16.5875 97.5818 15.7811H97.5505C97.4009 16.6099 97.1937 17.4211 96.9273 18.2179L95.86 21.4931H94.2633L91.9824 13.9507H93.7535L94.63 17.5363C94.8421 18.3843 95.0164 19.1923 95.1562 19.9571H95.1874C95.3157 19.3267 95.5278 18.5235 95.8271 17.5523L96.9273 13.9523H98.3316L99.3857 17.4755C99.6406 18.3347 99.8478 19.1619 100.007 19.9587H100.055C100.172 19.1827 100.348 18.3555 100.581 17.4755L101.522 13.9523H103.214V13.9507Z" fill="white"/>
<path d="M112.146 21.4928H110.423V17.1728C110.423 15.8416 109.903 15.176 108.861 15.176C108.349 15.176 107.937 15.3584 107.616 15.7248C107.299 16.0912 107.137 16.5232 107.137 17.0176V21.4912H105.414V16.1056C105.414 15.4432 105.393 14.7248 105.352 13.9472H106.866L106.947 15.1264H106.994C107.195 14.76 107.494 14.4576 107.887 14.216C108.354 13.9344 108.877 13.792 109.45 13.792C110.173 13.792 110.775 14.0192 111.253 14.4752C111.849 15.0336 112.146 15.8672 112.146 16.9744V21.4928V21.4928Z" fill="white"/>
<path d="M116.899 21.4929H115.178V10.4897H116.899V21.4929Z" fill="white"/>
<path d="M127.046 17.6593C127.046 18.8193 126.705 19.7697 126.024 20.5153C125.311 21.2817 124.363 21.6641 123.184 21.6641C122.045 21.6641 121.139 21.2977 120.464 20.5617C119.79 19.8273 119.453 18.9009 119.453 17.7841C119.453 16.6161 119.8 15.6577 120.497 14.9137C121.195 14.1697 122.132 13.7969 123.311 13.7969C124.451 13.7969 125.363 14.1633 126.057 14.8977C126.715 15.6113 127.046 16.5329 127.046 17.6593ZM125.256 17.7137C125.256 17.0177 125.102 16.4209 124.794 15.9233C124.434 15.3217 123.918 15.0209 123.25 15.0209C122.556 15.0209 122.03 15.3217 121.67 15.9233C121.361 16.4209 121.208 17.0273 121.208 17.7441C121.208 18.4401 121.362 19.0369 121.67 19.5345C122.043 20.1361 122.563 20.4369 123.234 20.4369C123.891 20.4369 124.406 20.1313 124.778 19.5185C125.099 19.0113 125.256 18.4097 125.256 17.7137Z" fill="white"/>
<path d="M135.387 21.4929H133.84L133.712 20.6241H133.664C133.135 21.3169 132.38 21.6641 131.4 21.6641C130.668 21.6641 130.076 21.4353 129.63 20.9809C129.226 20.5681 129.023 20.0545 129.023 19.4449C129.023 18.5233 129.418 17.8209 130.212 17.3345C131.005 16.8481 132.12 16.6097 133.556 16.6209V16.4801C133.556 15.4865 133.019 14.9905 131.946 14.9905C131.181 14.9905 130.507 15.1777 129.925 15.5489L129.574 14.4481C130.295 14.0145 131.184 13.7969 132.233 13.7969C134.259 13.7969 135.276 14.8369 135.276 16.9169V19.6945C135.276 20.4481 135.313 21.0481 135.387 21.4929ZM133.598 18.9009V17.7377C131.697 17.7057 130.747 18.2129 130.747 19.2577C130.747 19.6513 130.855 19.9457 131.077 20.1425C131.299 20.3393 131.582 20.4369 131.919 20.4369C132.298 20.4369 132.651 20.3201 132.973 20.0881C133.297 19.8545 133.496 19.5585 133.57 19.1953C133.588 19.1137 133.598 19.0145 133.598 18.9009Z" fill="white"/>
<path d="M145.179 21.4929H143.65L143.569 20.2817H143.522C143.033 21.2033 142.201 21.6641 141.032 21.6641C140.098 21.6641 139.32 21.3073 138.703 20.5937C138.087 19.8801 137.779 18.9537 137.779 17.8161C137.779 16.5953 138.113 15.6065 138.784 14.8513C139.434 14.1473 140.23 13.7953 141.177 13.7953C142.218 13.7953 142.946 14.1361 143.361 14.8193H143.393V10.4897H145.118V19.4609C145.118 20.1953 145.138 20.8721 145.179 21.4929ZM143.393 18.3121V17.0545C143.393 16.8369 143.377 16.6609 143.346 16.5265C143.249 16.1233 143.04 15.7841 142.722 15.5105C142.402 15.2369 142.015 15.0993 141.57 15.0993C140.927 15.0993 140.424 15.3473 140.054 15.8449C139.687 16.3425 139.501 16.9777 139.501 17.7537C139.501 18.4993 139.677 19.1041 140.031 19.5697C140.404 20.0657 140.907 20.3137 141.537 20.3137C142.103 20.3137 142.555 20.1073 142.898 19.6929C143.231 19.3105 143.393 18.8497 143.393 18.3121Z" fill="white"/>
<path d="M159.919 17.6593C159.919 18.8193 159.578 19.7697 158.897 20.5153C158.184 21.2817 157.24 21.6641 156.057 21.6641C154.921 21.6641 154.015 21.2977 153.338 20.5617C152.663 19.8273 152.326 18.9009 152.326 17.7841C152.326 16.6161 152.673 15.6577 153.37 14.9137C154.068 14.1697 155.005 13.7969 156.187 13.7969C157.324 13.7969 158.24 14.1633 158.93 14.8977C159.588 15.6113 159.919 16.5329 159.919 17.6593ZM158.133 17.7137C158.133 17.0177 157.978 16.4209 157.671 15.9233C157.307 15.3217 156.794 15.0209 156.123 15.0209C155.433 15.0209 154.906 15.3217 154.543 15.9233C154.234 16.4209 154.081 17.0273 154.081 17.7441C154.081 18.4401 154.235 19.0369 154.543 19.5345C154.916 20.1361 155.436 20.4369 156.107 20.4369C156.765 20.4369 157.283 20.1313 157.654 19.5185C157.972 19.0113 158.133 18.4097 158.133 17.7137Z" fill="white"/>
<path d="M169.186 21.4928H167.464V17.1728C167.464 15.8416 166.944 15.176 165.9 15.176C165.389 15.176 164.976 15.3584 164.657 15.7248C164.338 16.0912 164.178 16.5232 164.178 17.0176V21.4912H162.453V16.1056C162.453 15.4432 162.434 14.7248 162.393 13.9472H163.905L163.986 15.1264H164.034C164.236 14.76 164.535 14.4576 164.927 14.216C165.395 13.9344 165.917 13.792 166.491 13.792C167.212 13.792 167.814 14.0192 168.293 14.4752C168.89 15.0336 169.186 15.8672 169.186 16.9744V21.4928V21.4928Z" fill="white"/>
<path d="M180.784 15.2067H178.886V18.8707C178.886 19.8019 179.223 20.2675 179.891 20.2675C180.2 20.2675 180.456 20.2419 180.659 20.1891L180.703 21.4611C180.363 21.5859 179.915 21.6483 179.365 21.6483C178.684 21.6483 178.154 21.4467 177.771 21.0435C177.386 20.6403 177.196 19.9619 177.196 19.0099V15.2067H176.062V13.9507H177.196V12.5683L178.884 12.0723V13.9491H180.782V15.2067H180.784Z" fill="white"/>
<path d="M189.906 21.4929H188.181V17.2049C188.181 15.8529 187.662 15.1761 186.621 15.1761C185.821 15.1761 185.275 15.5681 184.976 16.3521C184.925 16.5169 184.896 16.7185 184.896 16.9553V21.4913H183.174V10.4897H184.896V15.0353H184.928C185.471 14.2081 186.249 13.7953 187.257 13.7953C187.971 13.7953 188.561 14.0225 189.03 14.4785C189.613 15.0465 189.906 15.8913 189.906 17.0081V21.4929V21.4929Z" fill="white"/>
<path d="M199.318 17.3651C199.318 17.6659 199.295 17.9187 199.254 18.1251H194.085C194.108 18.8707 194.355 19.4387 194.833 19.8323C195.271 20.1843 195.835 20.3603 196.525 20.3603C197.29 20.3603 197.987 20.2419 198.615 20.0035L198.885 21.1683C198.15 21.4787 197.285 21.6339 196.284 21.6339C195.083 21.6339 194.138 21.2899 193.454 20.6019C192.766 19.9139 192.426 18.9907 192.426 17.8323C192.426 16.6947 192.743 15.7475 193.383 14.9923C194.05 14.1859 194.953 13.7827 196.093 13.7827C197.208 13.7827 198.055 14.1859 198.627 14.9923C199.089 15.6323 199.318 16.4243 199.318 17.3651ZM197.673 16.9315C197.686 16.4339 197.573 16.0051 197.339 15.6435C197.04 15.1779 196.585 14.9443 195.968 14.9443C195.406 14.9443 194.947 15.1715 194.596 15.6275C194.31 15.9907 194.141 16.4243 194.085 16.9315H197.673Z" fill="white"/>
<path d="M88.2156 50.4066H84.481L82.4353 44.1522H75.3248L73.3761 50.4066H69.7402L76.785 29.1138H81.1362L88.2156 50.4066ZM81.8187 41.5282L79.9687 35.9682C79.773 35.4002 79.4063 34.0626 78.8653 31.957H78.7995C78.5841 32.8626 78.2371 34.2002 77.7602 35.9682L75.9431 41.5282H81.8187V41.5282Z" fill="white"/>
<path d="M106.333 42.541C106.333 45.1522 105.608 47.2162 104.157 48.7314C102.858 50.0802 101.245 50.7538 99.3195 50.7538C97.2409 50.7538 95.7477 50.0274 94.8384 48.5746H94.7726V56.6626H91.2666V40.1074C91.2666 38.4658 91.2222 36.781 91.1367 35.053H94.2201L94.4157 37.4866H94.4815C95.6507 35.653 97.4251 34.7378 99.8062 34.7378C101.668 34.7378 103.222 35.453 104.465 36.885C105.711 38.3186 106.333 40.2034 106.333 42.541ZM102.761 42.6658C102.761 41.1714 102.416 39.9394 101.722 38.9698C100.964 37.9586 99.946 37.453 98.6699 37.453C97.8049 37.453 97.0189 37.7346 96.3167 38.2898C95.6129 38.8498 95.1524 39.581 94.937 40.4866C94.8285 40.909 94.7742 41.2546 94.7742 41.5266V44.0866C94.7742 45.2034 95.1261 46.1458 95.83 46.9154C96.5338 47.685 97.4481 48.069 98.5729 48.069C99.8934 48.069 100.921 47.573 101.656 46.5842C102.393 45.5938 102.761 44.2882 102.761 42.6658Z" fill="white"/>
<path d="M124.482 42.541C124.482 45.1522 123.757 47.2162 122.305 48.7314C121.007 50.0802 119.394 50.7538 117.468 50.7538C115.39 50.7538 113.896 50.0274 112.989 48.5746H112.923V56.6626H109.417V40.1074C109.417 38.4658 109.373 36.781 109.287 35.053H112.37L112.566 37.4866H112.632C113.799 35.653 115.574 34.7378 117.957 34.7378C119.816 34.7378 121.37 35.453 122.617 36.885C123.859 38.3186 124.482 40.2034 124.482 42.541ZM120.91 42.6658C120.91 41.1714 120.563 39.9394 119.869 38.9698C119.111 37.9586 118.096 37.453 116.819 37.453C115.952 37.453 115.168 37.7346 114.464 38.2898C113.76 38.8498 113.301 39.581 113.086 40.4866C112.979 40.909 112.923 41.2546 112.923 41.5266V44.0866C112.923 45.2034 113.275 46.1458 113.975 46.9154C114.679 47.6834 115.594 48.069 116.722 48.069C118.042 48.069 119.07 47.573 119.805 46.5842C120.542 45.5938 120.91 44.2882 120.91 42.6658Z" fill="white"/>
<path d="M144.774 44.4354C144.774 46.2466 144.128 47.7202 142.83 48.8578C141.404 50.101 139.419 50.7218 136.869 50.7218C134.514 50.7218 132.626 50.2802 131.197 49.3954L132.01 46.5522C133.549 47.4578 135.238 47.9122 137.078 47.9122C138.398 47.9122 139.426 47.621 140.164 47.0418C140.899 46.4626 141.266 45.685 141.266 44.7154C141.266 43.8514 140.964 43.1234 140.357 42.533C139.753 41.9426 138.745 41.3938 137.338 40.8866C133.506 39.4962 131.592 37.4594 131.592 34.781C131.592 33.0306 132.263 31.5954 133.606 30.4786C134.945 29.3602 136.731 28.8018 138.964 28.8018C140.955 28.8018 142.61 29.1394 143.93 29.813L143.054 32.5938C141.82 31.941 140.426 31.6146 138.865 31.6146C137.632 31.6146 136.668 31.9106 135.978 32.4994C135.394 33.0258 135.101 33.6674 135.101 34.4274C135.101 35.269 135.435 35.965 136.106 36.5122C136.69 37.0178 137.75 37.565 139.29 38.1554C141.172 38.893 142.555 39.7554 143.445 40.7442C144.331 41.7298 144.774 42.9634 144.774 44.4354Z" fill="white"/>
<path d="M156.366 37.6131H152.502V45.0675C152.502 46.9635 153.182 47.9107 154.547 47.9107C155.174 47.9107 155.693 47.8579 156.105 47.7523L156.202 50.3427C155.511 50.5939 154.602 50.7203 153.475 50.7203C152.09 50.7203 151.008 50.3091 150.227 49.4883C149.449 48.6659 149.058 47.2867 149.058 45.3491V37.6099H146.756V35.0499H149.058V32.2387L152.502 31.2275V35.0499H156.366V37.6131Z" fill="white"/>
<path d="M173.802 42.6033C173.802 44.9633 173.108 46.9009 171.723 48.4161C170.271 49.9761 168.344 50.7537 165.941 50.7537C163.626 50.7537 161.783 50.0065 160.408 48.5121C159.033 47.0177 158.346 45.1313 158.346 42.8577C158.346 40.4785 159.053 38.5297 160.472 37.0145C161.888 35.4977 163.799 34.7393 166.201 34.7393C168.517 34.7393 170.38 35.4865 171.786 36.9825C173.131 38.4337 173.802 40.3073 173.802 42.6033ZM170.164 42.7137C170.164 41.2977 169.854 40.0833 169.224 39.0705C168.489 37.8449 167.438 37.2337 166.076 37.2337C164.667 37.2337 163.596 37.8465 162.861 39.0705C162.232 40.0849 161.921 41.3185 161.921 42.7777C161.921 44.1937 162.232 45.4081 162.861 46.4193C163.619 47.6449 164.678 48.2561 166.045 48.2561C167.384 48.2561 168.434 47.6321 169.192 46.3873C169.839 45.3553 170.164 44.1281 170.164 42.7137Z" fill="white"/>
<path d="M185.198 38.053C184.851 37.9906 184.481 37.9586 184.093 37.9586C182.86 37.9586 181.906 38.4114 181.235 39.3186C180.652 40.1186 180.359 41.1298 180.359 42.3506V50.4066H176.855L176.887 39.8882C176.887 38.1186 176.843 36.5074 176.756 35.0546H179.81L179.938 37.9922H180.035C180.405 36.9826 180.989 36.1698 181.788 35.5602C182.569 35.0114 183.413 34.7378 184.322 34.7378C184.646 34.7378 184.939 34.7602 185.198 34.8002V38.053Z" fill="white"/>
<path d="M200.877 42.0034C200.877 42.6146 200.836 43.1298 200.749 43.5506H190.231C190.272 45.0674 190.78 46.2274 191.757 47.0274C192.644 47.7426 193.79 48.101 195.197 48.101C196.755 48.101 198.176 47.8594 199.453 47.3746L200.002 49.7426C198.509 50.3762 196.746 50.6914 194.712 50.6914C192.265 50.6914 190.345 49.9906 188.947 48.5906C187.552 47.1906 186.854 45.3106 186.854 42.9522C186.854 40.637 187.503 38.709 188.804 37.1714C190.165 35.5298 192.006 34.709 194.321 34.709C196.595 34.709 198.317 35.5298 199.486 37.1714C200.412 38.4754 200.877 40.0882 200.877 42.0034ZM197.534 41.1186C197.557 40.1074 197.329 39.2338 196.853 38.4962C196.247 37.5474 195.314 37.0738 194.059 37.0738C192.913 37.0738 191.981 37.5362 191.269 38.4642C190.685 39.2018 190.338 40.0866 190.231 41.117H197.534V41.1186Z" fill="white"/>
</svg>
