<svg width="222" height="64" viewBox="0 0 222 64" fill="none" xmlns="http://www.w3.org/2000/svg">
<path d="M213.778 64H8.22222C3.70206 64 0 60.398 0 56V8C0 3.602 3.70206 3.8147e-06 8.22222 3.8147e-06H213.778C218.298 3.8147e-06 222 3.602 222 8V56C222 60.398 218.298 64 213.778 64Z" fill="black"/>
<path d="M213.778 1.282C217.585 1.282 220.682 4.296 220.682 8V56C220.682 59.704 217.585 62.718 213.778 62.718H8.22222C4.41533 62.718 1.31761 59.704 1.31761 56V8C1.31761 4.296 4.41533 1.282 8.22222 1.282H213.778ZM213.778 3.8147e-06H8.22222C3.70206 3.8147e-06 0 3.602 0 8V56C0 60.398 3.70206 64 8.22222 64H213.778C218.298 64 222 60.398 222 56V8C222 3.602 218.298 3.8147e-06 213.778 3.8147e-06Z" fill="#A6A6A6"/>
<path d="M17.1591 12.0617C16.676 12.5537 16.3965 13.3197 16.3965 14.3117V49.6957C16.3965 50.6877 16.676 51.4537 17.1591 51.9457L17.2783 52.0537L37.6571 32.2337V31.7657L17.2783 11.9457L17.1591 12.0617Z" fill="url(#paint0_linear_2403_2850)"/>
<path d="M44.4416 38.8438L37.6562 32.2338V31.7657L44.4499 25.1558L44.602 25.2418L52.6474 29.6957C54.9435 30.9597 54.9435 33.0398 52.6474 34.3117L44.602 38.7577L44.4416 38.8438V38.8438Z" fill="url(#paint1_linear_2403_2850)"/>
<path d="M44.6019 38.758L37.6562 32L17.1582 51.946C17.9208 52.726 19.1644 52.82 20.5786 52.04L44.6019 38.758" fill="url(#paint2_linear_2403_2850)"/>
<path d="M44.6019 25.242L20.5786 11.96C19.1644 11.188 17.9208 11.282 17.1582 12.062L37.6562 32L44.6019 25.242Z" fill="url(#paint3_linear_2403_2850)"/>
<path d="M77.9755 16.3899C77.9755 17.7259 77.5644 18.7959 76.7545 19.5939C75.8233 20.5399 74.6106 21.0159 73.1244 21.0159C71.704 21.0159 70.4912 20.5319 69.4963 19.5779C68.4994 18.6099 68.002 17.4219 68.002 15.9999C68.002 14.5779 68.4994 13.3899 69.4963 12.4299C70.4912 11.4679 71.704 10.9839 73.1244 10.9839C73.8315 10.9839 74.5057 11.1259 75.1491 11.3899C75.7904 11.6559 76.3126 12.0159 76.6908 12.4599L75.8316 13.3039C75.1717 12.5459 74.2735 12.1719 73.1244 12.1719C72.0884 12.1719 71.1901 12.5239 70.4275 13.2339C69.6731 13.9459 69.2949 14.8679 69.2949 15.9999C69.2949 17.1319 69.6731 18.0619 70.4275 18.7739C71.1901 19.4759 72.0884 19.8359 73.1244 19.8359C74.2241 19.8359 75.1491 19.4759 75.8788 18.7659C76.3598 18.2959 76.6332 17.6479 76.7052 16.8199H73.1244V15.6639H77.9015C77.9591 15.9139 77.9755 16.1559 77.9755 16.3899V16.3899Z" fill="white" stroke="white" stroke-width="0.16" stroke-miterlimit="10"/>
<path d="M85.5545 12.3821H81.0672V15.4221H85.1125V16.5781H81.0672V19.6181H85.5545V20.7961H79.7969V11.2041H85.5545V12.3821Z" fill="white" stroke="white" stroke-width="0.16" stroke-miterlimit="10"/>
<path d="M90.9036 20.7961H89.6332V12.3821H86.8809V11.2041H93.658V12.3821H90.9036V20.7961V20.7961Z" fill="white" stroke="white" stroke-width="0.16" stroke-miterlimit="10"/>
<path d="M98.5625 20.7961V11.2041H99.8308V20.7961H98.5625Z" fill="white" stroke="white" stroke-width="0.16" stroke-miterlimit="10"/>
<path d="M105.452 20.7961H104.192V12.3821H101.43V11.2041H108.215V12.3821H105.452V20.7961Z" fill="white" stroke="white" stroke-width="0.16" stroke-miterlimit="10"/>
<path d="M121.046 19.5619C120.074 20.5319 118.869 21.0159 117.433 21.0159C115.988 21.0159 114.783 20.5319 113.811 19.5619C112.84 18.5939 112.357 17.4059 112.357 15.9999C112.357 14.5939 112.84 13.4059 113.811 12.4379C114.783 11.4679 115.988 10.9839 117.433 10.9839C118.861 10.9839 120.066 11.4679 121.038 12.4459C122.016 13.4219 122.5 14.6019 122.5 15.9999C122.5 17.4059 122.016 18.5939 121.046 19.5619ZM114.75 18.7579C115.482 19.4759 116.372 19.8359 117.433 19.8359C118.485 19.8359 119.383 19.4759 120.107 18.7579C120.837 18.0399 121.207 17.1179 121.207 15.9999C121.207 14.8819 120.837 13.9599 120.107 13.2419C119.383 12.5239 118.485 12.1639 117.433 12.1639C116.372 12.1639 115.482 12.5239 114.75 13.2419C114.02 13.9599 113.65 14.8819 113.65 15.9999C113.65 17.1179 114.02 18.0399 114.75 18.7579V18.7579Z" fill="white" stroke="white" stroke-width="0.16" stroke-miterlimit="10"/>
<path d="M124.281 20.7961V11.2041H125.823L130.616 18.6641H130.672L130.616 16.8201V11.2041H131.885V20.7961H130.561L125.541 12.9681H125.486L125.541 14.8201V20.7961H124.281V20.7961Z" fill="white" stroke="white" stroke-width="0.16" stroke-miterlimit="10"/>
<path d="M112.044 34.8039C108.182 34.8039 105.027 37.6639 105.027 41.6099C105.027 45.5239 108.182 48.4139 112.044 48.4139C115.915 48.4139 119.07 45.5239 119.07 41.6099C119.07 37.6639 115.915 34.8039 112.044 34.8039ZM112.044 45.7339C109.925 45.7339 108.102 44.0319 108.102 41.6099C108.102 39.1559 109.925 37.4839 112.044 37.4839C114.164 37.4839 115.995 39.1559 115.995 41.6099C115.995 44.0319 114.164 45.7339 112.044 45.7339V45.7339ZM96.7327 34.8039C92.862 34.8039 89.715 37.6639 89.715 41.6099C89.715 45.5239 92.862 48.4139 96.7327 48.4139C100.601 48.4139 103.75 45.5239 103.75 41.6099C103.75 37.6639 100.601 34.8039 96.7327 34.8039ZM96.7327 45.7339C94.6113 45.7339 92.7819 44.0319 92.7819 41.6099C92.7819 39.1559 94.6113 37.4839 96.7327 37.4839C98.8519 37.4839 100.675 39.1559 100.675 41.6099C100.675 44.0319 98.8519 45.7339 96.7327 45.7339ZM78.5122 36.8899V39.7819H85.61C85.4024 41.3979 84.8474 42.5859 83.9964 43.4139C82.9604 44.4139 81.3468 45.5239 78.5122 45.5239C74.1442 45.5239 70.7237 42.0939 70.7237 37.8439C70.7237 33.5939 74.1442 30.1639 78.5122 30.1639C80.8741 30.1639 82.5925 31.0619 83.8608 32.2259L85.9554 30.1879C84.1814 28.5399 81.8217 27.2739 78.5122 27.2739C72.5223 27.2739 67.4883 32.0159 67.4883 37.8439C67.4883 43.6719 72.5223 48.4139 78.5122 48.4139C81.7497 48.4139 84.1814 47.3819 86.0931 45.4459C88.052 43.5399 88.6625 40.8599 88.6625 38.6959C88.6625 38.0239 88.605 37.4059 88.5022 36.8899H78.5122ZM153.018 39.1319C152.44 37.6099 150.658 34.8039 147.028 34.8039C143.431 34.8039 140.436 37.5619 140.436 41.6099C140.436 45.4219 143.4 48.4139 147.373 48.4139C150.586 48.4139 152.44 46.5079 153.203 45.3979L150.818 43.8519C150.023 44.9839 148.94 45.7339 147.373 45.7339C145.817 45.7339 144.701 45.0399 143.986 43.6719L153.341 39.9059L153.018 39.1319V39.1319ZM143.48 41.3979C143.4 38.7739 145.575 37.4299 147.133 37.4299C148.354 37.4299 149.39 38.0239 149.735 38.8739L143.48 41.3979V41.3979ZM135.877 47.9999H138.952V27.9999H135.877V47.9999ZM130.84 36.3199H130.738C130.047 35.5239 128.729 34.8039 127.06 34.8039C123.558 34.8039 120.355 37.7959 120.355 41.6319C120.355 45.4459 123.558 48.4139 127.06 48.4139C128.729 48.4139 130.047 47.6879 130.738 46.8679H130.84V47.8439C130.84 50.4459 129.412 51.8439 127.108 51.8439C125.229 51.8439 124.063 50.5239 123.582 49.4139L120.908 50.4999C121.679 52.3039 123.72 54.5239 127.108 54.5239C130.713 54.5239 133.755 52.4599 133.755 47.4379V35.2179H130.84V36.3199V36.3199ZM127.323 45.7339C125.204 45.7339 123.43 44.0079 123.43 41.6319C123.43 39.2339 125.204 37.4839 127.323 37.4839C129.412 37.4839 131.058 39.2339 131.058 41.6319C131.058 44.0079 129.412 45.7339 127.323 45.7339V45.7339ZM167.415 27.9999H160.06V47.9999H163.127V40.4219H167.415C170.821 40.4219 174.161 38.0239 174.161 34.2099C174.161 30.3979 170.813 27.9999 167.415 27.9999V27.9999ZM167.495 37.6399H163.127V30.7819H167.495C169.785 30.7819 171.092 32.6319 171.092 34.2099C171.092 35.7579 169.785 37.6399 167.495 37.6399ZM186.454 34.7659C184.238 34.7659 181.933 35.7179 180.986 37.8279L183.707 38.9379C184.293 37.8279 185.37 37.4679 186.509 37.4679C188.1 37.4679 189.714 38.3979 189.738 40.0399V40.2499C189.183 39.9379 187.995 39.4759 186.534 39.4759C183.602 39.4759 180.616 41.0459 180.616 43.9759C180.616 46.6559 183.017 48.3819 185.716 48.3819C187.779 48.3819 188.918 47.4759 189.633 46.4219H189.738V47.9679H192.7V40.2959C192.7 36.7499 189.979 34.7659 186.454 34.7659ZM186.084 45.7259C185.08 45.7259 183.683 45.2419 183.683 44.0319C183.683 42.4839 185.426 41.8899 186.935 41.8899C188.285 41.8899 188.918 42.1799 189.738 42.5619C189.498 44.4139 187.86 45.7259 186.084 45.7259V45.7259ZM203.492 35.2039L199.967 43.8739H199.862L196.217 35.2039H192.91L198.386 47.3199L195.262 54.0619H198.466L206.904 35.2039H203.492V35.2039ZM175.847 47.9999H178.922V27.9999H175.847V47.9999Z" fill="white"/>
<defs>
<linearGradient id="paint0_linear_2403_2850" x1="35.8477" y1="50.0642" x2="9.00594" y2="22.4768" gradientUnits="userSpaceOnUse">
<stop stop-color="#00A0FF"/>
<stop offset="0.0066" stop-color="#00A1FF"/>
<stop offset="0.2601" stop-color="#00BEFF"/>
<stop offset="0.5122" stop-color="#00D2FF"/>
<stop offset="0.7604" stop-color="#00DFFF"/>
<stop offset="1" stop-color="#00E3FF"/>
</linearGradient>
<linearGradient id="paint1_linear_2403_2850" x1="55.6373" y1="31.9975" x2="15.8468" y2="31.9975" gradientUnits="userSpaceOnUse">
<stop stop-color="#FFE000"/>
<stop offset="0.4087" stop-color="#FFBD00"/>
<stop offset="0.7754" stop-color="#FFA500"/>
<stop offset="1" stop-color="#FF9C00"/>
</linearGradient>
<linearGradient id="paint2_linear_2403_2850" x1="40.825" y1="28.3262" x2="4.42543" y2="-9.08451" gradientUnits="userSpaceOnUse">
<stop stop-color="#FF3A44"/>
<stop offset="1" stop-color="#C31162"/>
</linearGradient>
<linearGradient id="paint3_linear_2403_2850" x1="11.9984" y1="63.7181" x2="28.2525" y2="47.0127" gradientUnits="userSpaceOnUse">
<stop stop-color="#32A071"/>
<stop offset="0.0685" stop-color="#2DA771"/>
<stop offset="0.4762" stop-color="#15CF74"/>
<stop offset="0.8009" stop-color="#06E775"/>
<stop offset="1" stop-color="#00F076"/>
</linearGradient>
</defs>
</svg>
