<svg width="208" height="70" viewBox="0 0 208 70" fill="none" xmlns="http://www.w3.org/2000/svg">
<path fill-rule="evenodd" clip-rule="evenodd" d="M20.7625 55.7633C32.2297 63.626 47.8997 60.704 55.7625 49.2367C63.6252 37.7695 60.7032 22.0994 49.2359 14.2367C37.7687 6.374 22.0987 9.29603 14.2359 20.7633C6.37321 32.2305 9.29524 47.9005 20.7625 55.7633Z" stroke="white" stroke-width="2"/>
<path d="M41.2578 10.292C46.8058 19.234 46.885 31.0221 40.5172 40.3091C34.1494 49.5962 26.269 53.6373 15.9284 51.685" stroke="white" stroke-width="2"/>
<path d="M100.129 26.059V45H96.255V34.106C96.255 33.8547 96.2593 33.5817 96.268 33.287C96.2853 32.9923 96.3113 32.6933 96.346 32.39L91.315 42.127C91.159 42.4303 90.9466 42.66 90.678 42.816C90.418 42.972 90.119 43.05 89.781 43.05H89.183C88.845 43.05 88.5416 42.972 88.273 42.816C88.013 42.66 87.805 42.4303 87.649 42.127L82.618 32.364C82.644 32.676 82.6656 32.9837 82.683 33.287C82.7003 33.5817 82.709 33.8547 82.709 34.106V45H78.835V26.059H82.189C82.3796 26.059 82.5443 26.0633 82.683 26.072C82.8303 26.0807 82.9603 26.1067 83.073 26.15C83.1856 26.1933 83.2853 26.2627 83.372 26.358C83.4673 26.4447 83.5583 26.5703 83.645 26.735L88.52 36.342C88.6933 36.6713 88.858 37.0137 89.014 37.369C89.1786 37.7243 89.3346 38.0883 89.482 38.461C89.6293 38.0797 89.781 37.707 89.937 37.343C90.1016 36.979 90.275 36.6323 90.457 36.303L95.319 26.735C95.4056 26.5703 95.4923 26.4447 95.579 26.358C95.6743 26.2627 95.7783 26.1933 95.891 26.15C96.0036 26.1067 96.1293 26.0807 96.268 26.072C96.4153 26.0633 96.5843 26.059 96.775 26.059H100.129ZM108.214 29.439V33.859H114.168V37.109H108.214V41.62H115.988V45H103.794V26.059H115.988V29.439H108.214ZM135.39 35.692C135.39 37.0873 135.169 38.357 134.727 39.501C134.285 40.645 133.661 41.6243 132.855 42.439C132.049 43.2537 131.079 43.8863 129.943 44.337C128.817 44.779 127.569 45 126.199 45H119.244V26.371H126.199C127.569 26.371 128.817 26.5963 129.943 27.047C131.079 27.489 132.049 28.1217 132.855 28.945C133.661 29.7597 134.285 30.739 134.727 31.883C135.169 33.027 135.39 34.2967 135.39 35.692ZM132.803 35.692C132.803 34.548 132.647 33.5253 132.335 32.624C132.023 31.7227 131.581 30.96 131.009 30.336C130.437 29.712 129.744 29.2353 128.929 28.906C128.115 28.5767 127.205 28.412 126.199 28.412H121.766V42.959H126.199C127.205 42.959 128.115 42.7943 128.929 42.465C129.744 42.1357 130.437 41.6633 131.009 41.048C131.581 40.424 132.023 39.6613 132.335 38.76C132.647 37.8587 132.803 36.836 132.803 35.692ZM141.546 45H139.024V26.371H141.546V45ZM158.908 28.49H152.876V45H150.367V28.49H144.322V26.371H158.908V28.49ZM169.737 38.084L166.812 30.505C166.725 30.2797 166.634 30.0197 166.539 29.725C166.444 29.4217 166.353 29.101 166.266 28.763C166.084 29.465 165.898 30.05 165.707 30.518L162.782 38.084H169.737ZM174.989 45H173.039C172.814 45 172.632 44.9437 172.493 44.831C172.354 44.7183 172.25 44.5753 172.181 44.402L170.439 39.904H162.08L160.338 44.402C160.286 44.558 160.186 44.6967 160.039 44.818C159.892 44.9393 159.71 45 159.493 45H157.543L164.992 26.371H167.54L174.989 45ZM188.208 28.49H182.176V45H179.667V28.49H173.622V26.371H188.208V28.49ZM202.465 42.946L202.452 45H190.973V26.371H202.452V28.425H193.495V34.613H200.749V36.589H193.495V42.946H202.465Z" fill="white"/>
</svg>
